solid StoneyDesigner_solid
facet normal 0.9990482216 0.04361938737 0
outer loop
vertex 0.04000000004 0.02500000037 -0.004999999888
vertex 0.03998097353 0.02543577908 -0.004999999888
vertex 0.04000000004 0.02500000037 0.01499999966
endloop
endfacet
facet normal 0.9990482216 0.04361938737 -0
outer loop
vertex 0.03998097353 0.02543577908 -0.004999999888
vertex 0.03998097353 0.02543577908 0.01499999966
vertex 0.04000000004 0.02500000037 0.01499999966
endloop
endfacet
facet normal -0 0 1
outer loop
vertex 0.03500000015 0.02500000037 0.01499999966
vertex 0.04000000004 0.02500000037 0.01499999966
vertex 0.03998097353 0.02543577908 0.01499999966
endloop
endfacet
facet normal 0 0 -1
outer loop
vertex 0.03500000015 0.02500000037 -0.004999999888
vertex 0.03998097353 0.02543577908 -0.004999999888
vertex 0.04000000004 0.02500000037 -0.004999999888
endloop
endfacet
facet normal 0.9914448614 0.1305261922 0
outer loop
vertex 0.03998097353 0.02543577908 -0.004999999888
vertex 0.0399240388 0.02586824124 -0.004999999888
vertex 0.03998097353 0.02543577908 0.01499999966
endloop
endfacet
facet normal 0.9914448614 0.1305261922 -0
outer loop
vertex 0.0399240388 0.02586824124 -0.004999999888
vertex 0.0399240388 0.02586824124 0.01499999966
vertex 0.03998097353 0.02543577908 0.01499999966
endloop
endfacet
facet normal -0 0 1
outer loop
vertex 0.03500000015 0.02500000037 0.01499999966
vertex 0.03998097353 0.02543577908 0.01499999966
vertex 0.0399240388 0.02586824124 0.01499999966
endloop
endfacet
facet normal -0 0 -1
outer loop
vertex 0.03500000015 0.02500000037 -0.004999999888
vertex 0.0399240388 0.02586824124 -0.004999999888
vertex 0.03998097353 0.02543577908 -0.004999999888
endloop
endfacet
facet normal 0.9762960071 0.2164396139 0
outer loop
vertex 0.0399240388 0.02586824124 -0.004999999888
vertex 0.03982962917 0.02629409557 -0.004999999888
vertex 0.0399240388 0.02586824124 0.01499999966
endloop
endfacet
facet normal 0.9762960071 0.2164396139 -0
outer loop
vertex 0.03982962917 0.02629409557 -0.004999999888
vertex 0.03982962917 0.02629409557 0.01499999966
vertex 0.0399240388 0.02586824124 0.01499999966
endloop
endfacet
facet normal -0 0 1
outer loop
vertex 0.03500000015 0.02500000037 0.01499999966
vertex 0.0399240388 0.02586824124 0.01499999966
vertex 0.03982962917 0.02629409557 0.01499999966
endloop
endfacet
facet normal -0 0 -1
outer loop
vertex 0.03500000015 0.02500000037 -0.004999999888
vertex 0.03982962917 0.02629409557 -0.004999999888
vertex 0.0399240388 0.02586824124 -0.004999999888
endloop
endfacet
facet normal 0.9537169507 0.3007057995 0
outer loop
vertex 0.03982962917 0.02629409557 -0.004999999888
vertex 0.03969846315 0.02671010105 -0.004999999888
vertex 0.03982962917 0.02629409557 0.01499999966
endloop
endfacet
facet normal 0.9537169507 0.3007057995 -0
outer loop
vertex 0.03969846315 0.02671010105 -0.004999999888
vertex 0.03969846315 0.02671010105 0.01499999966
vertex 0.03982962917 0.02629409557 0.01499999966
endloop
endfacet
facet normal -0 0 1
outer loop
vertex 0.03500000015 0.02500000037 0.01499999966
vertex 0.03982962917 0.02629409557 0.01499999966
vertex 0.03969846315 0.02671010105 0.01499999966
endloop
endfacet
facet normal -0 0 -1
outer loop
vertex 0.03500000015 0.02500000037 -0.004999999888
vertex 0.03969846315 0.02671010105 -0.004999999888
vertex 0.03982962917 0.02629409557 -0.004999999888
endloop
endfacet
facet normal 0.9238795325 0.3826834324 0
outer loop
vertex 0.03969846315 0.02671010105 -0.004999999888
vertex 0.03953153898 0.02711309163 -0.004999999888
vertex 0.03969846315 0.02671010105 0.01499999966
endloop
endfacet
facet normal 0.9238795325 0.3826834324 -0
outer loop
vertex 0.03953153898 0.02711309163 -0.004999999888
vertex 0.03953153898 0.02711309163 0.01499999966
vertex 0.03969846315 0.02671010105 0.01499999966
endloop
endfacet
facet normal -0 0 1
outer loop
vertex 0.03500000015 0.02500000037 0.01499999966
vertex 0.03969846315 0.02671010105 0.01499999966
vertex 0.03953153898 0.02711309163 0.01499999966
endloop
endfacet
facet normal -0 0 -1
outer loop
vertex 0.03500000015 0.02500000037 -0.004999999888
vertex 0.03953153898 0.02711309163 -0.004999999888
vertex 0.03969846315 0.02671010105 -0.004999999888
endloop
endfacet
facet normal 0.8870108332 0.4617486132 0
outer loop
vertex 0.03953153898 0.02711309163 -0.004999999888
vertex 0.03933012707 0.02750000032 -0.004999999888
vertex 0.03953153898 0.02711309163 0.01499999966
endloop
endfacet
facet normal 0.8870108332 0.4617486132 -0
outer loop
vertex 0.03933012707 0.02750000032 -0.004999999888
vertex 0.03933012707 0.02750000032 0.01499999966
vertex 0.03953153898 0.02711309163 0.01499999966
endloop
endfacet
facet normal -0 0 1
outer loop
vertex 0.03500000015 0.02500000037 0.01499999966
vertex 0.03953153898 0.02711309163 0.01499999966
vertex 0.03933012707 0.02750000032 0.01499999966
endloop
endfacet
facet normal -0 0 -1
outer loop
vertex 0.03500000015 0.02500000037 -0.004999999888
vertex 0.03933012707 0.02750000032 -0.004999999888
vertex 0.03953153898 0.02711309163 -0.004999999888
endloop
endfacet
facet normal 0.8433914458 0.5372996083 0
outer loop
vertex 0.03933012707 0.02750000032 -0.004999999888
vertex 0.03909576028 0.02786788249 -0.004999999888
vertex 0.03933012707 0.02750000032 0.01499999966
endloop
endfacet
facet normal 0.8433914458 0.5372996083 -0
outer loop
vertex 0.03909576028 0.02786788249 -0.004999999888
vertex 0.03909576028 0.02786788249 0.01499999966
vertex 0.03933012707 0.02750000032 0.01499999966
endloop
endfacet
facet normal -0 0 1
outer loop
vertex 0.03500000015 0.02500000037 0.01499999966
vertex 0.03933012707 0.02750000032 0.01499999966
vertex 0.03909576028 0.02786788249 0.01499999966
endloop
endfacet
facet normal -0 0 -1
outer loop
vertex 0.03500000015 0.02500000037 -0.004999999888
vertex 0.03909576028 0.02786788249 -0.004999999888
vertex 0.03933012707 0.02750000032 -0.004999999888
endloop
endfacet
facet normal 0.7933533403 0.608761429 0
outer loop
vertex 0.03909576028 0.02786788249 -0.004999999888
vertex 0.03883022228 0.02821393835 -0.004999999888
vertex 0.03909576028 0.02786788249 0.01499999966
endloop
endfacet
facet normal 0.7933533403 0.608761429 -0
outer loop
vertex 0.03883022228 0.02821393835 -0.004999999888
vertex 0.03883022228 0.02821393835 0.01499999966
vertex 0.03909576028 0.02786788249 0.01499999966
endloop
endfacet
facet normal -0 0 1
outer loop
vertex 0.03500000015 0.02500000037 0.01499999966
vertex 0.03909576028 0.02786788249 0.01499999966
vertex 0.03883022228 0.02821393835 0.01499999966
endloop
endfacet
facet normal -0 0 -1
outer loop
vertex 0.03500000015 0.02500000037 -0.004999999888
vertex 0.03883022228 0.02821393835 -0.004999999888
vertex 0.03909576028 0.02786788249 -0.004999999888
endloop
endfacet
facet normal 0.7372773368 0.6755902076 0
outer loop
vertex 0.03883022228 0.02821393835 -0.004999999888
vertex 0.03853553398 0.0285355342 -0.004999999888
vertex 0.03883022228 0.02821393835 0.01499999966
endloop
endfacet
facet normal 0.7372773368 0.6755902076 -0
outer loop
vertex 0.03853553398 0.0285355342 -0.004999999888
vertex 0.03853553398 0.0285355342 0.01499999966
vertex 0.03883022228 0.02821393835 0.01499999966
endloop
endfacet
facet normal -0 0 1
outer loop
vertex 0.03500000015 0.02500000037 0.01499999966
vertex 0.03883022228 0.02821393835 0.01499999966
vertex 0.03853553398 0.0285355342 0.01499999966
endloop
endfacet
facet normal -0 0 -1
outer loop
vertex 0.03500000015 0.02500000037 -0.004999999888
vertex 0.03853553398 0.0285355342 -0.004999999888
vertex 0.03883022228 0.02821393835 -0.004999999888
endloop
endfacet
facet normal 0.6755902076 0.7372773368 0
outer loop
vertex 0.03853553398 0.0285355342 -0.004999999888
vertex 0.03821393813 0.0288302225 -0.004999999888
vertex 0.03853553398 0.0285355342 0.01499999966
endloop
endfacet
facet normal 0.6755902076 0.7372773368 -0
outer loop
vertex 0.03821393813 0.0288302225 -0.004999999888
vertex 0.03821393813 0.0288302225 0.01499999966
vertex 0.03853553398 0.0285355342 0.01499999966
endloop
endfacet
facet normal -0 0 1
outer loop
vertex 0.03500000015 0.02500000037 0.01499999966
vertex 0.03853553398 0.0285355342 0.01499999966
vertex 0.03821393813 0.0288302225 0.01499999966
endloop
endfacet
facet normal -0 0 -1
outer loop
vertex 0.03500000015 0.02500000037 -0.004999999888
vertex 0.03821393813 0.0288302225 -0.004999999888
vertex 0.03853553398 0.0285355342 -0.004999999888
endloop
endfacet
facet normal 0.608761429 0.7933533403 0
outer loop
vertex 0.03821393813 0.0288302225 -0.004999999888
vertex 0.03786788227 0.0290957605 -0.004999999888
vertex 0.03821393813 0.0288302225 0.01499999966
endloop
endfacet
facet normal 0.608761429 0.7933533403 -0
outer loop
vertex 0.03786788227 0.0290957605 -0.004999999888
vertex 0.03786788227 0.0290957605 0.01499999966
vertex 0.03821393813 0.0288302225 0.01499999966
endloop
endfacet
facet normal -0 0 1
outer loop
vertex 0.03500000015 0.02500000037 0.01499999966
vertex 0.03821393813 0.0288302225 0.01499999966
vertex 0.03786788227 0.0290957605 0.01499999966
endloop
endfacet
facet normal -0 0 -1
outer loop
vertex 0.03500000015 0.02500000037 -0.004999999888
vertex 0.03786788227 0.0290957605 -0.004999999888
vertex 0.03821393813 0.0288302225 -0.004999999888
endloop
endfacet
facet normal 0.5372996083 0.8433914458 0
outer loop
vertex 0.03786788227 0.0290957605 -0.004999999888
vertex 0.03750000009 0.02933012729 -0.004999999888
vertex 0.03786788227 0.0290957605 0.01499999966
endloop
endfacet
facet normal 0.5372996083 0.8433914458 -0
outer loop
vertex 0.03750000009 0.02933012729 -0.004999999888
vertex 0.03750000009 0.02933012729 0.01499999966
vertex 0.03786788227 0.0290957605 0.01499999966
endloop
endfacet
facet normal -0 0 1
outer loop
vertex 0.03500000015 0.02500000037 0.01499999966
vertex 0.03786788227 0.0290957605 0.01499999966
vertex 0.03750000009 0.02933012729 0.01499999966
endloop
endfacet
facet normal -0 0 -1
outer loop
vertex 0.03500000015 0.02500000037 -0.004999999888
vertex 0.03750000009 0.02933012729 -0.004999999888
vertex 0.03786788227 0.0290957605 -0.004999999888
endloop
endfacet
facet normal 0.4617486132 0.8870108332 0
outer loop
vertex 0.03750000009 0.02933012729 -0.004999999888
vertex 0.03711309141 0.02953153921 -0.004999999888
vertex 0.03750000009 0.02933012729 0.01499999966
endloop
endfacet
facet normal 0.4617486132 0.8870108332 -0
outer loop
vertex 0.03711309141 0.02953153921 -0.004999999888
vertex 0.03711309141 0.02953153921 0.01499999966
vertex 0.03750000009 0.02933012729 0.01499999966
endloop
endfacet
facet normal -0 0 1
outer loop
vertex 0.03500000015 0.02500000037 0.01499999966
vertex 0.03750000009 0.02933012729 0.01499999966
vertex 0.03711309141 0.02953153921 0.01499999966
endloop
endfacet
facet normal -0 0 -1
outer loop
vertex 0.03500000015 0.02500000037 -0.004999999888
vertex 0.03711309141 0.02953153921 -0.004999999888
vertex 0.03750000009 0.02933012729 -0.004999999888
endloop
endfacet
facet normal 0.3826834324 0.9238795325 0
outer loop
vertex 0.03711309141 0.02953153921 -0.004999999888
vertex 0.03671010083 0.02969846337 -0.004999999888
vertex 0.03711309141 0.02953153921 0.01499999966
endloop
endfacet
facet normal 0.3826834324 0.9238795325 -0
outer loop
vertex 0.03671010083 0.02969846337 -0.004999999888
vertex 0.03671010083 0.02969846337 0.01499999966
vertex 0.03711309141 0.02953153921 0.01499999966
endloop
endfacet
facet normal -0 0 1
outer loop
vertex 0.03500000015 0.02500000037 0.01499999966
vertex 0.03711309141 0.02953153921 0.01499999966
vertex 0.03671010083 0.02969846337 0.01499999966
endloop
endfacet
facet normal -0 0 -1
outer loop
vertex 0.03500000015 0.02500000037 -0.004999999888
vertex 0.03671010083 0.02969846337 -0.004999999888
vertex 0.03711309141 0.02953153921 -0.004999999888
endloop
endfacet
facet normal 0.3007057995 0.9537169507 0
outer loop
vertex 0.03671010083 0.02969846337 -0.004999999888
vertex 0.03629409535 0.0298296294 -0.004999999888
vertex 0.03671010083 0.02969846337 0.01499999966
endloop
endfacet
facet normal 0.3007057995 0.9537169507 -0
outer loop
vertex 0.03629409535 0.0298296294 -0.004999999888
vertex 0.03629409535 0.0298296294 0.01499999966
vertex 0.03671010083 0.02969846337 0.01499999966
endloop
endfacet
facet normal -0 0 1
outer loop
vertex 0.03500000015 0.02500000037 0.01499999966
vertex 0.03671010083 0.02969846337 0.01499999966
vertex 0.03629409535 0.0298296294 0.01499999966
endloop
endfacet
facet normal -0 0 -1
outer loop
vertex 0.03500000015 0.02500000037 -0.004999999888
vertex 0.03629409535 0.0298296294 -0.004999999888
vertex 0.03671010083 0.02969846337 -0.004999999888
endloop
endfacet
facet normal 0.2164396139 0.9762960071 0
outer loop
vertex 0.03629409535 0.0298296294 -0.004999999888
vertex 0.03586824102 0.02992403903 -0.004999999888
vertex 0.03629409535 0.0298296294 0.01499999966
endloop
endfacet
facet normal 0.2164396139 0.9762960071 -0
outer loop
vertex 0.03586824102 0.02992403903 -0.004999999888
vertex 0.03586824102 0.02992403903 0.01499999966
vertex 0.03629409535 0.0298296294 0.01499999966
endloop
endfacet
facet normal -0 0 1
outer loop
vertex 0.03500000015 0.02500000037 0.01499999966
vertex 0.03629409535 0.0298296294 0.01499999966
vertex 0.03586824102 0.02992403903 0.01499999966
endloop
endfacet
facet normal -0 0 -1
outer loop
vertex 0.03500000015 0.02500000037 -0.004999999888
vertex 0.03586824102 0.02992403903 -0.004999999888
vertex 0.03629409535 0.0298296294 -0.004999999888
endloop
endfacet
facet normal 0.1305261922 0.9914448614 0
outer loop
vertex 0.03586824102 0.02992403903 -0.004999999888
vertex 0.03543577885 0.02998097375 -0.004999999888
vertex 0.03586824102 0.02992403903 0.01499999966
endloop
endfacet
facet normal 0.1305261922 0.9914448614 -0
outer loop
vertex 0.03543577885 0.02998097375 -0.004999999888
vertex 0.03543577885 0.02998097375 0.01499999966
vertex 0.03586824102 0.02992403903 0.01499999966
endloop
endfacet
facet normal -0 0 1
outer loop
vertex 0.03500000015 0.02500000037 0.01499999966
vertex 0.03586824102 0.02992403903 0.01499999966
vertex 0.03543577885 0.02998097375 0.01499999966
endloop
endfacet
facet normal -0 0 -1
outer loop
vertex 0.03500000015 0.02500000037 -0.004999999888
vertex 0.03543577885 0.02998097375 -0.004999999888
vertex 0.03586824102 0.02992403903 -0.004999999888
endloop
endfacet
facet normal 0.04361938737 0.9990482216 0
outer loop
vertex 0.03543577885 0.02998097375 -0.004999999888
vertex 0.03500000015 0.03000000026 -0.004999999888
vertex 0.03543577885 0.02998097375 0.01499999966
endloop
endfacet
facet normal 0.04361938737 0.9990482216 -0
outer loop
vertex 0.03500000015 0.03000000026 -0.004999999888
vertex 0.03500000015 0.03000000026 0.01499999966
vertex 0.03543577885 0.02998097375 0.01499999966
endloop
endfacet
facet normal -0 0 1
outer loop
vertex 0.03500000015 0.02500000037 0.01499999966
vertex 0.03543577885 0.02998097375 0.01499999966
vertex 0.03500000015 0.03000000026 0.01499999966
endloop
endfacet
facet normal -0 0 -1
outer loop
vertex 0.03500000015 0.02500000037 -0.004999999888
vertex 0.03500000015 0.03000000026 -0.004999999888
vertex 0.03543577885 0.02998097375 -0.004999999888
endloop
endfacet
facet normal -0.04361938737 0.9990482216 0
outer loop
vertex 0.03500000015 0.03000000026 -0.004999999888
vertex 0.03456422145 0.02998097375 -0.004999999888
vertex 0.03500000015 0.03000000026 0.01499999966
endloop
endfacet
facet normal -0.04361938737 0.9990482216 0
outer loop
vertex 0.03456422145 0.02998097375 -0.004999999888
vertex 0.03456422145 0.02998097375 0.01499999966
vertex 0.03500000015 0.03000000026 0.01499999966
endloop
endfacet
facet normal -0 -0 1
outer loop
vertex 0.03500000015 0.02500000037 0.01499999966
vertex 0.03500000015 0.03000000026 0.01499999966
vertex 0.03456422145 0.02998097375 0.01499999966
endloop
endfacet
facet normal -0 -0 -1
outer loop
vertex 0.03500000015 0.02500000037 -0.004999999888
vertex 0.03456422145 0.02998097375 -0.004999999888
vertex 0.03500000015 0.03000000026 -0.004999999888
endloop
endfacet
facet normal -0.1305261922 0.9914448614 0
outer loop
vertex 0.03456422145 0.02998097375 -0.004999999888
vertex 0.03413175928 0.02992403903 -0.004999999888
vertex 0.03456422145 0.02998097375 0.01499999966
endloop
endfacet
facet normal -0.1305261922 0.9914448614 0
outer loop
vertex 0.03413175928 0.02992403903 -0.004999999888
vertex 0.03413175928 0.02992403903 0.01499999966
vertex 0.03456422145 0.02998097375 0.01499999966
endloop
endfacet
facet normal -0 -0 1
outer loop
vertex 0.03500000015 0.02500000037 0.01499999966
vertex 0.03456422145 0.02998097375 0.01499999966
vertex 0.03413175928 0.02992403903 0.01499999966
endloop
endfacet
facet normal -0 -0 -1
outer loop
vertex 0.03500000015 0.02500000037 -0.004999999888
vertex 0.03413175928 0.02992403903 -0.004999999888
vertex 0.03456422145 0.02998097375 -0.004999999888
endloop
endfacet
facet normal -0.2164396139 0.9762960071 0
outer loop
vertex 0.03413175928 0.02992403903 -0.004999999888
vertex 0.03370590495 0.0298296294 -0.004999999888
vertex 0.03413175928 0.02992403903 0.01499999966
endloop
endfacet
facet normal -0.2164396139 0.9762960071 0
outer loop
vertex 0.03370590495 0.0298296294 -0.004999999888
vertex 0.03370590495 0.0298296294 0.01499999966
vertex 0.03413175928 0.02992403903 0.01499999966
endloop
endfacet
facet normal -0 -0 1
outer loop
vertex 0.03500000015 0.02500000037 0.01499999966
vertex 0.03413175928 0.02992403903 0.01499999966
vertex 0.03370590495 0.0298296294 0.01499999966
endloop
endfacet
facet normal -0 -0 -1
outer loop
vertex 0.03500000015 0.02500000037 -0.004999999888
vertex 0.03370590495 0.0298296294 -0.004999999888
vertex 0.03413175928 0.02992403903 -0.004999999888
endloop
endfacet
facet normal -0.3007057995 0.9537169507 0
outer loop
vertex 0.03370590495 0.0298296294 -0.004999999888
vertex 0.03328989947 0.02969846337 -0.004999999888
vertex 0.03370590495 0.0298296294 0.01499999966
endloop
endfacet
facet normal -0.3007057995 0.9537169507 0
outer loop
vertex 0.03328989947 0.02969846337 -0.004999999888
vertex 0.03328989947 0.02969846337 0.01499999966
vertex 0.03370590495 0.0298296294 0.01499999966
endloop
endfacet
facet normal -0 -0 1
outer loop
vertex 0.03500000015 0.02500000037 0.01499999966
vertex 0.03370590495 0.0298296294 0.01499999966
vertex 0.03328989947 0.02969846337 0.01499999966
endloop
endfacet
facet normal -0 -0 -1
outer loop
vertex 0.03500000015 0.02500000037 -0.004999999888
vertex 0.03328989947 0.02969846337 -0.004999999888
vertex 0.03370590495 0.0298296294 -0.004999999888
endloop
endfacet
facet normal -0.3826834324 0.9238795325 0
outer loop
vertex 0.03328989947 0.02969846337 -0.004999999888
vertex 0.03288690889 0.02953153921 -0.004999999888
vertex 0.03328989947 0.02969846337 0.01499999966
endloop
endfacet
facet normal -0.3826834324 0.9238795325 0
outer loop
vertex 0.03288690889 0.02953153921 -0.004999999888
vertex 0.03288690889 0.02953153921 0.01499999966
vertex 0.03328989947 0.02969846337 0.01499999966
endloop
endfacet
facet normal -0 -0 1
outer loop
vertex 0.03500000015 0.02500000037 0.01499999966
vertex 0.03328989947 0.02969846337 0.01499999966
vertex 0.03288690889 0.02953153921 0.01499999966
endloop
endfacet
facet normal -0 -0 -1
outer loop
vertex 0.03500000015 0.02500000037 -0.004999999888
vertex 0.03288690889 0.02953153921 -0.004999999888
vertex 0.03328989947 0.02969846337 -0.004999999888
endloop
endfacet
facet normal -0.4617486132 0.8870108332 0
outer loop
vertex 0.03288690889 0.02953153921 -0.004999999888
vertex 0.0325000002 0.02933012729 -0.004999999888
vertex 0.03288690889 0.02953153921 0.01499999966
endloop
endfacet
facet normal -0.4617486132 0.8870108332 0
outer loop
vertex 0.0325000002 0.02933012729 -0.004999999888
vertex 0.0325000002 0.02933012729 0.01499999966
vertex 0.03288690889 0.02953153921 0.01499999966
endloop
endfacet
facet normal -0 -0 1
outer loop
vertex 0.03500000015 0.02500000037 0.01499999966
vertex 0.03288690889 0.02953153921 0.01499999966
vertex 0.0325000002 0.02933012729 0.01499999966
endloop
endfacet
facet normal -0 -0 -1
outer loop
vertex 0.03500000015 0.02500000037 -0.004999999888
vertex 0.0325000002 0.02933012729 -0.004999999888
vertex 0.03288690889 0.02953153921 -0.004999999888
endloop
endfacet
facet normal -0.5372996083 0.8433914458 0
outer loop
vertex 0.0325000002 0.02933012729 -0.004999999888
vertex 0.03213211803 0.0290957605 -0.004999999888
vertex 0.0325000002 0.02933012729 0.01499999966
endloop
endfacet
facet normal -0.5372996083 0.8433914458 0
outer loop
vertex 0.03213211803 0.0290957605 -0.004999999888
vertex 0.03213211803 0.0290957605 0.01499999966
vertex 0.0325000002 0.02933012729 0.01499999966
endloop
endfacet
facet normal -0 -0 1
outer loop
vertex 0.03500000015 0.02500000037 0.01499999966
vertex 0.0325000002 0.02933012729 0.01499999966
vertex 0.03213211803 0.0290957605 0.01499999966
endloop
endfacet
facet normal -0 -0 -1
outer loop
vertex 0.03500000015 0.02500000037 -0.004999999888
vertex 0.03213211803 0.0290957605 -0.004999999888
vertex 0.0325000002 0.02933012729 -0.004999999888
endloop
endfacet
facet normal -0.608761429 0.7933533403 0
outer loop
vertex 0.03213211803 0.0290957605 -0.004999999888
vertex 0.03178606217 0.0288302225 -0.004999999888
vertex 0.03213211803 0.0290957605 0.01499999966
endloop
endfacet
facet normal -0.608761429 0.7933533403 0
outer loop
vertex 0.03178606217 0.0288302225 -0.004999999888
vertex 0.03178606217 0.0288302225 0.01499999966
vertex 0.03213211803 0.0290957605 0.01499999966
endloop
endfacet
facet normal -0 -0 1
outer loop
vertex 0.03500000015 0.02500000037 0.01499999966
vertex 0.03213211803 0.0290957605 0.01499999966
vertex 0.03178606217 0.0288302225 0.01499999966
endloop
endfacet
facet normal -0 -0 -1
outer loop
vertex 0.03500000015 0.02500000037 -0.004999999888
vertex 0.03178606217 0.0288302225 -0.004999999888
vertex 0.03213211803 0.0290957605 -0.004999999888
endloop
endfacet
facet normal -0.6755902076 0.7372773368 0
outer loop
vertex 0.03178606217 0.0288302225 -0.004999999888
vertex 0.03146446632 0.0285355342 -0.004999999888
vertex 0.03178606217 0.0288302225 0.01499999966
endloop
endfacet
facet normal -0.6755902076 0.7372773368 0
outer loop
vertex 0.03146446632 0.0285355342 -0.004999999888
vertex 0.03146446632 0.0285355342 0.01499999966
vertex 0.03178606217 0.0288302225 0.01499999966
endloop
endfacet
facet normal -0 -0 1
outer loop
vertex 0.03500000015 0.02500000037 0.01499999966
vertex 0.03178606217 0.0288302225 0.01499999966
vertex 0.03146446632 0.0285355342 0.01499999966
endloop
endfacet
facet normal -0 -0 -1
outer loop
vertex 0.03500000015 0.02500000037 -0.004999999888
vertex 0.03146446632 0.0285355342 -0.004999999888
vertex 0.03178606217 0.0288302225 -0.004999999888
endloop
endfacet
facet normal -0.7372773368 0.6755902076 0
outer loop
vertex 0.03146446632 0.0285355342 -0.004999999888
vertex 0.03116977802 0.02821393835 -0.004999999888
vertex 0.03146446632 0.0285355342 0.01499999966
endloop
endfacet
facet normal -0.7372773368 0.6755902076 0
outer loop
vertex 0.03116977802 0.02821393835 -0.004999999888
vertex 0.03116977802 0.02821393835 0.01499999966
vertex 0.03146446632 0.0285355342 0.01499999966
endloop
endfacet
facet normal -0 -0 1
outer loop
vertex 0.03500000015 0.02500000037 0.01499999966
vertex 0.03146446632 0.0285355342 0.01499999966
vertex 0.03116977802 0.02821393835 0.01499999966
endloop
endfacet
facet normal -0 -0 -1
outer loop
vertex 0.03500000015 0.02500000037 -0.004999999888
vertex 0.03116977802 0.02821393835 -0.004999999888
vertex 0.03146446632 0.0285355342 -0.004999999888
endloop
endfacet
facet normal -0.7933533403 0.608761429 0
outer loop
vertex 0.03116977802 0.02821393835 -0.004999999888
vertex 0.03090424002 0.02786788249 -0.004999999888
vertex 0.03116977802 0.02821393835 0.01499999966
endloop
endfacet
facet normal -0.7933533403 0.608761429 0
outer loop
vertex 0.03090424002 0.02786788249 -0.004999999888
vertex 0.03090424002 0.02786788249 0.01499999966
vertex 0.03116977802 0.02821393835 0.01499999966
endloop
endfacet
facet normal -0 -0 1
outer loop
vertex 0.03500000015 0.02500000037 0.01499999966
vertex 0.03116977802 0.02821393835 0.01499999966
vertex 0.03090424002 0.02786788249 0.01499999966
endloop
endfacet
facet normal -0 -0 -1
outer loop
vertex 0.03500000015 0.02500000037 -0.004999999888
vertex 0.03090424002 0.02786788249 -0.004999999888
vertex 0.03116977802 0.02821393835 -0.004999999888
endloop
endfacet
facet normal -0.8433914458 0.5372996083 0
outer loop
vertex 0.03090424002 0.02786788249 -0.004999999888
vertex 0.03066987323 0.02750000032 -0.004999999888
vertex 0.03090424002 0.02786788249 0.01499999966
endloop
endfacet
facet normal -0.8433914458 0.5372996083 0
outer loop
vertex 0.03066987323 0.02750000032 -0.004999999888
vertex 0.03066987323 0.02750000032 0.01499999966
vertex 0.03090424002 0.02786788249 0.01499999966
endloop
endfacet
facet normal -0 -0 1
outer loop
vertex 0.03500000015 0.02500000037 0.01499999966
vertex 0.03090424002 0.02786788249 0.01499999966
vertex 0.03066987323 0.02750000032 0.01499999966
endloop
endfacet
facet normal -0 -0 -1
outer loop
vertex 0.03500000015 0.02500000037 -0.004999999888
vertex 0.03066987323 0.02750000032 -0.004999999888
vertex 0.03090424002 0.02786788249 -0.004999999888
endloop
endfacet
facet normal -0.8870108332 0.4617486132 0
outer loop
vertex 0.03066987323 0.02750000032 -0.004999999888
vertex 0.03046846132 0.02711309163 -0.004999999888
vertex 0.03066987323 0.02750000032 0.01499999966
endloop
endfacet
facet normal -0.8870108332 0.4617486132 0
outer loop
vertex 0.03046846132 0.02711309163 -0.004999999888
vertex 0.03046846132 0.02711309163 0.01499999966
vertex 0.03066987323 0.02750000032 0.01499999966
endloop
endfacet
facet normal -0 -0 1
outer loop
vertex 0.03500000015 0.02500000037 0.01499999966
vertex 0.03066987323 0.02750000032 0.01499999966
vertex 0.03046846132 0.02711309163 0.01499999966
endloop
endfacet
facet normal -0 -0 -1
outer loop
vertex 0.03500000015 0.02500000037 -0.004999999888
vertex 0.03046846132 0.02711309163 -0.004999999888
vertex 0.03066987323 0.02750000032 -0.004999999888
endloop
endfacet
facet normal -0.9238795325 0.3826834324 0
outer loop
vertex 0.03046846132 0.02711309163 -0.004999999888
vertex 0.03030153715 0.02671010105 -0.004999999888
vertex 0.03046846132 0.02711309163 0.01499999966
endloop
endfacet
facet normal -0.9238795325 0.3826834324 0
outer loop
vertex 0.03030153715 0.02671010105 -0.004999999888
vertex 0.03030153715 0.02671010105 0.01499999966
vertex 0.03046846132 0.02711309163 0.01499999966
endloop
endfacet
facet normal -0 -0 1
outer loop
vertex 0.03500000015 0.02500000037 0.01499999966
vertex 0.03046846132 0.02711309163 0.01499999966
vertex 0.03030153715 0.02671010105 0.01499999966
endloop
endfacet
facet normal -0 -0 -1
outer loop
vertex 0.03500000015 0.02500000037 -0.004999999888
vertex 0.03030153715 0.02671010105 -0.004999999888
vertex 0.03046846132 0.02711309163 -0.004999999888
endloop
endfacet
facet normal -0.9537169507 0.3007057995 0
outer loop
vertex 0.03030153715 0.02671010105 -0.004999999888
vertex 0.03017037113 0.02629409557 -0.004999999888
vertex 0.03030153715 0.02671010105 0.01499999966
endloop
endfacet
facet normal -0.9537169507 0.3007057995 0
outer loop
vertex 0.03017037113 0.02629409557 -0.004999999888
vertex 0.03017037113 0.02629409557 0.01499999966
vertex 0.03030153715 0.02671010105 0.01499999966
endloop
endfacet
facet normal -0 -0 1
outer loop
vertex 0.03500000015 0.02500000037 0.01499999966
vertex 0.03030153715 0.02671010105 0.01499999966
vertex 0.03017037113 0.02629409557 0.01499999966
endloop
endfacet
facet normal -0 -0 -1
outer loop
vertex 0.03500000015 0.02500000037 -0.004999999888
vertex 0.03017037113 0.02629409557 -0.004999999888
vertex 0.03030153715 0.02671010105 -0.004999999888
endloop
endfacet
facet normal -0.9762960071 0.2164396139 0
outer loop
vertex 0.03017037113 0.02629409557 -0.004999999888
vertex 0.03007596149 0.02586824124 -0.004999999888
vertex 0.03017037113 0.02629409557 0.01499999966
endloop
endfacet
facet normal -0.9762960071 0.2164396139 0
outer loop
vertex 0.03007596149 0.02586824124 -0.004999999888
vertex 0.03007596149 0.02586824124 0.01499999966
vertex 0.03017037113 0.02629409557 0.01499999966
endloop
endfacet
facet normal -0 -0 1
outer loop
vertex 0.03500000015 0.02500000037 0.01499999966
vertex 0.03017037113 0.02629409557 0.01499999966
vertex 0.03007596149 0.02586824124 0.01499999966
endloop
endfacet
facet normal -0 -0 -1
outer loop
vertex 0.03500000015 0.02500000037 -0.004999999888
vertex 0.03007596149 0.02586824124 -0.004999999888
vertex 0.03017037113 0.02629409557 -0.004999999888
endloop
endfacet
facet normal -0.9914448614 0.1305261922 0
outer loop
vertex 0.03007596149 0.02586824124 -0.004999999888
vertex 0.03001902677 0.02543577908 -0.004999999888
vertex 0.03007596149 0.02586824124 0.01499999966
endloop
endfacet
facet normal -0.9914448614 0.1305261922 0
outer loop
vertex 0.03001902677 0.02543577908 -0.004999999888
vertex 0.03001902677 0.02543577908 0.01499999966
vertex 0.03007596149 0.02586824124 0.01499999966
endloop
endfacet
facet normal -0 -0 1
outer loop
vertex 0.03500000015 0.02500000037 0.01499999966
vertex 0.03007596149 0.02586824124 0.01499999966
vertex 0.03001902677 0.02543577908 0.01499999966
endloop
endfacet
facet normal -0 -0 -1
outer loop
vertex 0.03500000015 0.02500000037 -0.004999999888
vertex 0.03001902677 0.02543577908 -0.004999999888
vertex 0.03007596149 0.02586824124 -0.004999999888
endloop
endfacet
facet normal -0.9990482216 0.04361938737 0
outer loop
vertex 0.03001902677 0.02543577908 -0.004999999888
vertex 0.03000000026 0.02500000037 -0.004999999888
vertex 0.03001902677 0.02543577908 0.01499999966
endloop
endfacet
facet normal -0.9990482216 0.04361938737 0
outer loop
vertex 0.03000000026 0.02500000037 -0.004999999888
vertex 0.03000000026 0.02500000037 0.01499999966
vertex 0.03001902677 0.02543577908 0.01499999966
endloop
endfacet
facet normal 0 -0 1
outer loop
vertex 0.03500000015 0.02500000037 0.01499999966
vertex 0.03001902677 0.02543577908 0.01499999966
vertex 0.03000000026 0.02500000037 0.01499999966
endloop
endfacet
facet normal 0 -0 -1
outer loop
vertex 0.03500000015 0.02500000037 -0.004999999888
vertex 0.03000000026 0.02500000037 -0.004999999888
vertex 0.03001902677 0.02543577908 -0.004999999888
endloop
endfacet
facet normal -0.9990482216 -0.04361938737 -0
outer loop
vertex 0.03000000026 0.02500000037 -0.004999999888
vertex 0.03001902677 0.02456422167 -0.004999999888
vertex 0.03000000026 0.02500000037 0.01499999966
endloop
endfacet
facet normal -0.9990482216 -0.04361938737 0
outer loop
vertex 0.03001902677 0.02456422167 -0.004999999888
vertex 0.03001902677 0.02456422167 0.01499999966
vertex 0.03000000026 0.02500000037 0.01499999966
endloop
endfacet
facet normal 0 -0 1
outer loop
vertex 0.03500000015 0.02500000037 0.01499999966
vertex 0.03000000026 0.02500000037 0.01499999966
vertex 0.03001902677 0.02456422167 0.01499999966
endloop
endfacet
facet normal 0 -0 -1
outer loop
vertex 0.03500000015 0.02500000037 -0.004999999888
vertex 0.03001902677 0.02456422167 -0.004999999888
vertex 0.03000000026 0.02500000037 -0.004999999888
endloop
endfacet
facet normal -0.9914448614 -0.1305261922 -0
outer loop
vertex 0.03001902677 0.02456422167 -0.004999999888
vertex 0.03007596149 0.0241317595 -0.004999999888
vertex 0.03001902677 0.02456422167 0.01499999966
endloop
endfacet
facet normal -0.9914448614 -0.1305261922 0
outer loop
vertex 0.03007596149 0.0241317595 -0.004999999888
vertex 0.03007596149 0.0241317595 0.01499999966
vertex 0.03001902677 0.02456422167 0.01499999966
endloop
endfacet
facet normal 0 -0 1
outer loop
vertex 0.03500000015 0.02500000037 0.01499999966
vertex 0.03001902677 0.02456422167 0.01499999966
vertex 0.03007596149 0.0241317595 0.01499999966
endloop
endfacet
facet normal 0 -0 -1
outer loop
vertex 0.03500000015 0.02500000037 -0.004999999888
vertex 0.03007596149 0.0241317595 -0.004999999888
vertex 0.03001902677 0.02456422167 -0.004999999888
endloop
endfacet
facet normal -0.9762960071 -0.2164396139 -0
outer loop
vertex 0.03007596149 0.0241317595 -0.004999999888
vertex 0.03017037113 0.02370590518 -0.004999999888
vertex 0.03007596149 0.0241317595 0.01499999966
endloop
endfacet
facet normal -0.9762960071 -0.2164396139 0
outer loop
vertex 0.03017037113 0.02370590518 -0.004999999888
vertex 0.03017037113 0.02370590518 0.01499999966
vertex 0.03007596149 0.0241317595 0.01499999966
endloop
endfacet
facet normal 0 -0 1
outer loop
vertex 0.03500000015 0.02500000037 0.01499999966
vertex 0.03007596149 0.0241317595 0.01499999966
vertex 0.03017037113 0.02370590518 0.01499999966
endloop
endfacet
facet normal 0 -0 -1
outer loop
vertex 0.03500000015 0.02500000037 -0.004999999888
vertex 0.03017037113 0.02370590518 -0.004999999888
vertex 0.03007596149 0.0241317595 -0.004999999888
endloop
endfacet
facet normal -0.9537169507 -0.3007057995 -0
outer loop
vertex 0.03017037113 0.02370590518 -0.004999999888
vertex 0.03030153715 0.02328989969 -0.004999999888
vertex 0.03017037113 0.02370590518 0.01499999966
endloop
endfacet
facet normal -0.9537169507 -0.3007057995 0
outer loop
vertex 0.03030153715 0.02328989969 -0.004999999888
vertex 0.03030153715 0.02328989969 0.01499999966
vertex 0.03017037113 0.02370590518 0.01499999966
endloop
endfacet
facet normal 0 -0 1
outer loop
vertex 0.03500000015 0.02500000037 0.01499999966
vertex 0.03017037113 0.02370590518 0.01499999966
vertex 0.03030153715 0.02328989969 0.01499999966
endloop
endfacet
facet normal 0 -0 -1
outer loop
vertex 0.03500000015 0.02500000037 -0.004999999888
vertex 0.03030153715 0.02328989969 -0.004999999888
vertex 0.03017037113 0.02370590518 -0.004999999888
endloop
endfacet
facet normal -0.9238795325 -0.3826834324 -0
outer loop
vertex 0.03030153715 0.02328989969 -0.004999999888
vertex 0.03046846132 0.02288690911 -0.004999999888
vertex 0.03030153715 0.02328989969 0.01499999966
endloop
endfacet
facet normal -0.9238795325 -0.3826834324 0
outer loop
vertex 0.03046846132 0.02288690911 -0.004999999888
vertex 0.03046846132 0.02288690911 0.01499999966
vertex 0.03030153715 0.02328989969 0.01499999966
endloop
endfacet
facet normal 0 -0 1
outer loop
vertex 0.03500000015 0.02500000037 0.01499999966
vertex 0.03030153715 0.02328989969 0.01499999966
vertex 0.03046846132 0.02288690911 0.01499999966
endloop
endfacet
facet normal 0 -0 -1
outer loop
vertex 0.03500000015 0.02500000037 -0.004999999888
vertex 0.03046846132 0.02288690911 -0.004999999888
vertex 0.03030153715 0.02328989969 -0.004999999888
endloop
endfacet
facet normal -0.8870108332 -0.4617486132 -0
outer loop
vertex 0.03046846132 0.02288690911 -0.004999999888
vertex 0.03066987323 0.02250000043 -0.004999999888
vertex 0.03046846132 0.02288690911 0.01499999966
endloop
endfacet
facet normal -0.8870108332 -0.4617486132 0
outer loop
vertex 0.03066987323 0.02250000043 -0.004999999888
vertex 0.03066987323 0.02250000043 0.01499999966
vertex 0.03046846132 0.02288690911 0.01499999966
endloop
endfacet
facet normal 0 -0 1
outer loop
vertex 0.03500000015 0.02500000037 0.01499999966
vertex 0.03046846132 0.02288690911 0.01499999966
vertex 0.03066987323 0.02250000043 0.01499999966
endloop
endfacet
facet normal 0 -0 -1
outer loop
vertex 0.03500000015 0.02500000037 -0.004999999888
vertex 0.03066987323 0.02250000043 -0.004999999888
vertex 0.03046846132 0.02288690911 -0.004999999888
endloop
endfacet
facet normal -0.8433914458 -0.5372996083 -0
outer loop
vertex 0.03066987323 0.02250000043 -0.004999999888
vertex 0.03090424002 0.02213211825 -0.004999999888
vertex 0.03066987323 0.02250000043 0.01499999966
endloop
endfacet
facet normal -0.8433914458 -0.5372996083 0
outer loop
vertex 0.03090424002 0.02213211825 -0.004999999888
vertex 0.03090424002 0.02213211825 0.01499999966
vertex 0.03066987323 0.02250000043 0.01499999966
endloop
endfacet
facet normal 0 -0 1
outer loop
vertex 0.03500000015 0.02500000037 0.01499999966
vertex 0.03066987323 0.02250000043 0.01499999966
vertex 0.03090424002 0.02213211825 0.01499999966
endloop
endfacet
facet normal 0 -0 -1
outer loop
vertex 0.03500000015 0.02500000037 -0.004999999888
vertex 0.03090424002 0.02213211825 -0.004999999888
vertex 0.03066987323 0.02250000043 -0.004999999888
endloop
endfacet
facet normal -0.7933533403 -0.608761429 -0
outer loop
vertex 0.03090424002 0.02213211825 -0.004999999888
vertex 0.03116977802 0.0217860624 -0.004999999888
vertex 0.03090424002 0.02213211825 0.01499999966
endloop
endfacet
facet normal -0.7933533403 -0.608761429 0
outer loop
vertex 0.03116977802 0.0217860624 -0.004999999888
vertex 0.03116977802 0.0217860624 0.01499999966
vertex 0.03090424002 0.02213211825 0.01499999966
endloop
endfacet
facet normal 0 -0 1
outer loop
vertex 0.03500000015 0.02500000037 0.01499999966
vertex 0.03090424002 0.02213211825 0.01499999966
vertex 0.03116977802 0.0217860624 0.01499999966
endloop
endfacet
facet normal 0 -0 -1
outer loop
vertex 0.03500000015 0.02500000037 -0.004999999888
vertex 0.03116977802 0.0217860624 -0.004999999888
vertex 0.03090424002 0.02213211825 -0.004999999888
endloop
endfacet
facet normal -0.7372773368 -0.6755902076 -0
outer loop
vertex 0.03116977802 0.0217860624 -0.004999999888
vertex 0.03146446632 0.02146446655 -0.004999999888
vertex 0.03116977802 0.0217860624 0.01499999966
endloop
endfacet
facet normal -0.7372773368 -0.6755902076 0
outer loop
vertex 0.03146446632 0.02146446655 -0.004999999888
vertex 0.03146446632 0.02146446655 0.01499999966
vertex 0.03116977802 0.0217860624 0.01499999966
endloop
endfacet
facet normal 0 -0 1
outer loop
vertex 0.03500000015 0.02500000037 0.01499999966
vertex 0.03116977802 0.0217860624 0.01499999966
vertex 0.03146446632 0.02146446655 0.01499999966
endloop
endfacet
facet normal 0 -0 -1
outer loop
vertex 0.03500000015 0.02500000037 -0.004999999888
vertex 0.03146446632 0.02146446655 -0.004999999888
vertex 0.03116977802 0.0217860624 -0.004999999888
endloop
endfacet
facet normal -0.6755902076 -0.7372773368 -0
outer loop
vertex 0.03146446632 0.02146446655 -0.004999999888
vertex 0.03178606217 0.02116977824 -0.004999999888
vertex 0.03146446632 0.02146446655 0.01499999966
endloop
endfacet
facet normal -0.6755902076 -0.7372773368 0
outer loop
vertex 0.03178606217 0.02116977824 -0.004999999888
vertex 0.03178606217 0.02116977824 0.01499999966
vertex 0.03146446632 0.02146446655 0.01499999966
endloop
endfacet
facet normal 0 -0 1
outer loop
vertex 0.03500000015 0.02500000037 0.01499999966
vertex 0.03146446632 0.02146446655 0.01499999966
vertex 0.03178606217 0.02116977824 0.01499999966
endloop
endfacet
facet normal 0 -0 -1
outer loop
vertex 0.03500000015 0.02500000037 -0.004999999888
vertex 0.03178606217 0.02116977824 -0.004999999888
vertex 0.03146446632 0.02146446655 -0.004999999888
endloop
endfacet
facet normal -0.608761429 -0.7933533403 -0
outer loop
vertex 0.03178606217 0.02116977824 -0.004999999888
vertex 0.03213211803 0.02090424024 -0.004999999888
vertex 0.03178606217 0.02116977824 0.01499999966
endloop
endfacet
facet normal -0.608761429 -0.7933533403 0
outer loop
vertex 0.03213211803 0.02090424024 -0.004999999888
vertex 0.03213211803 0.02090424024 0.01499999966
vertex 0.03178606217 0.02116977824 0.01499999966
endloop
endfacet
facet normal 0 -0 1
outer loop
vertex 0.03500000015 0.02500000037 0.01499999966
vertex 0.03178606217 0.02116977824 0.01499999966
vertex 0.03213211803 0.02090424024 0.01499999966
endloop
endfacet
facet normal 0 -0 -1
outer loop
vertex 0.03500000015 0.02500000037 -0.004999999888
vertex 0.03213211803 0.02090424024 -0.004999999888
vertex 0.03178606217 0.02116977824 -0.004999999888
endloop
endfacet
facet normal -0.5372996083 -0.8433914458 -0
outer loop
vertex 0.03213211803 0.02090424024 -0.004999999888
vertex 0.0325000002 0.02066987345 -0.004999999888
vertex 0.03213211803 0.02090424024 0.01499999966
endloop
endfacet
facet normal -0.5372996083 -0.8433914458 0
outer loop
vertex 0.0325000002 0.02066987345 -0.004999999888
vertex 0.0325000002 0.02066987345 0.01499999966
vertex 0.03213211803 0.02090424024 0.01499999966
endloop
endfacet
facet normal 0 -0 1
outer loop
vertex 0.03500000015 0.02500000037 0.01499999966
vertex 0.03213211803 0.02090424024 0.01499999966
vertex 0.0325000002 0.02066987345 0.01499999966
endloop
endfacet
facet normal 0 -0 -1
outer loop
vertex 0.03500000015 0.02500000037 -0.004999999888
vertex 0.0325000002 0.02066987345 -0.004999999888
vertex 0.03213211803 0.02090424024 -0.004999999888
endloop
endfacet
facet normal -0.4617486132 -0.8870108332 -0
outer loop
vertex 0.0325000002 0.02066987345 -0.004999999888
vertex 0.03288690889 0.02046846154 -0.004999999888
vertex 0.0325000002 0.02066987345 0.01499999966
endloop
endfacet
facet normal -0.4617486132 -0.8870108332 0
outer loop
vertex 0.03288690889 0.02046846154 -0.004999999888
vertex 0.03288690889 0.02046846154 0.01499999966
vertex 0.0325000002 0.02066987345 0.01499999966
endloop
endfacet
facet normal 0 -0 1
outer loop
vertex 0.03500000015 0.02500000037 0.01499999966
vertex 0.0325000002 0.02066987345 0.01499999966
vertex 0.03288690889 0.02046846154 0.01499999966
endloop
endfacet
facet normal 0 -0 -1
outer loop
vertex 0.03500000015 0.02500000037 -0.004999999888
vertex 0.03288690889 0.02046846154 -0.004999999888
vertex 0.0325000002 0.02066987345 -0.004999999888
endloop
endfacet
facet normal -0.3826834324 -0.9238795325 -0
outer loop
vertex 0.03288690889 0.02046846154 -0.004999999888
vertex 0.03328989947 0.02030153737 -0.004999999888
vertex 0.03288690889 0.02046846154 0.01499999966
endloop
endfacet
facet normal -0.3826834324 -0.9238795325 0
outer loop
vertex 0.03328989947 0.02030153737 -0.004999999888
vertex 0.03328989947 0.02030153737 0.01499999966
vertex 0.03288690889 0.02046846154 0.01499999966
endloop
endfacet
facet normal 0 -0 1
outer loop
vertex 0.03500000015 0.02500000037 0.01499999966
vertex 0.03288690889 0.02046846154 0.01499999966
vertex 0.03328989947 0.02030153737 0.01499999966
endloop
endfacet
facet normal 0 -0 -1
outer loop
vertex 0.03500000015 0.02500000037 -0.004999999888
vertex 0.03328989947 0.02030153737 -0.004999999888
vertex 0.03288690889 0.02046846154 -0.004999999888
endloop
endfacet
facet normal -0.3007057995 -0.9537169507 -0
outer loop
vertex 0.03328989947 0.02030153737 -0.004999999888
vertex 0.03370590495 0.02017037135 -0.004999999888
vertex 0.03328989947 0.02030153737 0.01499999966
endloop
endfacet
facet normal -0.3007057995 -0.9537169507 0
outer loop
vertex 0.03370590495 0.02017037135 -0.004999999888
vertex 0.03370590495 0.02017037135 0.01499999966
vertex 0.03328989947 0.02030153737 0.01499999966
endloop
endfacet
facet normal 0 -0 1
outer loop
vertex 0.03500000015 0.02500000037 0.01499999966
vertex 0.03328989947 0.02030153737 0.01499999966
vertex 0.03370590495 0.02017037135 0.01499999966
endloop
endfacet
facet normal 0 -0 -1
outer loop
vertex 0.03500000015 0.02500000037 -0.004999999888
vertex 0.03370590495 0.02017037135 -0.004999999888
vertex 0.03328989947 0.02030153737 -0.004999999888
endloop
endfacet
facet normal -0.2164396139 -0.9762960071 -0
outer loop
vertex 0.03370590495 0.02017037135 -0.004999999888
vertex 0.03413175928 0.02007596172 -0.004999999888
vertex 0.03370590495 0.02017037135 0.01499999966
endloop
endfacet
facet normal -0.2164396139 -0.9762960071 0
outer loop
vertex 0.03413175928 0.02007596172 -0.004999999888
vertex 0.03413175928 0.02007596172 0.01499999966
vertex 0.03370590495 0.02017037135 0.01499999966
endloop
endfacet
facet normal 0 -0 1
outer loop
vertex 0.03500000015 0.02500000037 0.01499999966
vertex 0.03370590495 0.02017037135 0.01499999966
vertex 0.03413175928 0.02007596172 0.01499999966
endloop
endfacet
facet normal 0 -0 -1
outer loop
vertex 0.03500000015 0.02500000037 -0.004999999888
vertex 0.03413175928 0.02007596172 -0.004999999888
vertex 0.03370590495 0.02017037135 -0.004999999888
endloop
endfacet
facet normal -0.1305261922 -0.9914448614 -0
outer loop
vertex 0.03413175928 0.02007596172 -0.004999999888
vertex 0.03456422145 0.02001902699 -0.004999999888
vertex 0.03413175928 0.02007596172 0.01499999966
endloop
endfacet
facet normal -0.1305261922 -0.9914448614 0
outer loop
vertex 0.03456422145 0.02001902699 -0.004999999888
vertex 0.03456422145 0.02001902699 0.01499999966
vertex 0.03413175928 0.02007596172 0.01499999966
endloop
endfacet
facet normal 0 -0 1
outer loop
vertex 0.03500000015 0.02500000037 0.01499999966
vertex 0.03413175928 0.02007596172 0.01499999966
vertex 0.03456422145 0.02001902699 0.01499999966
endloop
endfacet
facet normal 0 -0 -1
outer loop
vertex 0.03500000015 0.02500000037 -0.004999999888
vertex 0.03456422145 0.02001902699 -0.004999999888
vertex 0.03413175928 0.02007596172 -0.004999999888
endloop
endfacet
facet normal -0.04361938737 -0.9990482216 -0
outer loop
vertex 0.03456422145 0.02001902699 -0.004999999888
vertex 0.03500000015 0.02000000048 -0.004999999888
vertex 0.03456422145 0.02001902699 0.01499999966
endloop
endfacet
facet normal -0.04361938737 -0.9990482216 0
outer loop
vertex 0.03500000015 0.02000000048 -0.004999999888
vertex 0.03500000015 0.02000000048 0.01499999966
vertex 0.03456422145 0.02001902699 0.01499999966
endloop
endfacet
facet normal 0 0 1
outer loop
vertex 0.03500000015 0.02500000037 0.01499999966
vertex 0.03456422145 0.02001902699 0.01499999966
vertex 0.03500000015 0.02000000048 0.01499999966
endloop
endfacet
facet normal 0 0 -1
outer loop
vertex 0.03500000015 0.02500000037 -0.004999999888
vertex 0.03500000015 0.02000000048 -0.004999999888
vertex 0.03456422145 0.02001902699 -0.004999999888
endloop
endfacet
facet normal 0.04361938737 -0.9990482216 0
outer loop
vertex 0.03500000015 0.02000000048 -0.004999999888
vertex 0.03543577885 0.02001902699 -0.004999999888
vertex 0.03500000015 0.02000000048 0.01499999966
endloop
endfacet
facet normal 0.04361938737 -0.9990482216 0
outer loop
vertex 0.03543577885 0.02001902699 -0.004999999888
vertex 0.03543577885 0.02001902699 0.01499999966
vertex 0.03500000015 0.02000000048 0.01499999966
endloop
endfacet
facet normal 0 0 1
outer loop
vertex 0.03500000015 0.02500000037 0.01499999966
vertex 0.03500000015 0.02000000048 0.01499999966
vertex 0.03543577885 0.02001902699 0.01499999966
endloop
endfacet
facet normal 0 0 -1
outer loop
vertex 0.03500000015 0.02500000037 -0.004999999888
vertex 0.03543577885 0.02001902699 -0.004999999888
vertex 0.03500000015 0.02000000048 -0.004999999888
endloop
endfacet
facet normal 0.1305261922 -0.9914448614 0
outer loop
vertex 0.03543577885 0.02001902699 -0.004999999888
vertex 0.03586824102 0.02007596172 -0.004999999888
vertex 0.03543577885 0.02001902699 0.01499999966
endloop
endfacet
facet normal 0.1305261922 -0.9914448614 0
outer loop
vertex 0.03586824102 0.02007596172 -0.004999999888
vertex 0.03586824102 0.02007596172 0.01499999966
vertex 0.03543577885 0.02001902699 0.01499999966
endloop
endfacet
facet normal 0 0 1
outer loop
vertex 0.03500000015 0.02500000037 0.01499999966
vertex 0.03543577885 0.02001902699 0.01499999966
vertex 0.03586824102 0.02007596172 0.01499999966
endloop
endfacet
facet normal 0 0 -1
outer loop
vertex 0.03500000015 0.02500000037 -0.004999999888
vertex 0.03586824102 0.02007596172 -0.004999999888
vertex 0.03543577885 0.02001902699 -0.004999999888
endloop
endfacet
facet normal 0.2164396139 -0.9762960071 0
outer loop
vertex 0.03586824102 0.02007596172 -0.004999999888
vertex 0.03629409535 0.02017037135 -0.004999999888
vertex 0.03586824102 0.02007596172 0.01499999966
endloop
endfacet
facet normal 0.2164396139 -0.9762960071 0
outer loop
vertex 0.03629409535 0.02017037135 -0.004999999888
vertex 0.03629409535 0.02017037135 0.01499999966
vertex 0.03586824102 0.02007596172 0.01499999966
endloop
endfacet
facet normal 0 0 1
outer loop
vertex 0.03500000015 0.02500000037 0.01499999966
vertex 0.03586824102 0.02007596172 0.01499999966
vertex 0.03629409535 0.02017037135 0.01499999966
endloop
endfacet
facet normal 0 0 -1
outer loop
vertex 0.03500000015 0.02500000037 -0.004999999888
vertex 0.03629409535 0.02017037135 -0.004999999888
vertex 0.03586824102 0.02007596172 -0.004999999888
endloop
endfacet
facet normal 0.3007057995 -0.9537169507 0
outer loop
vertex 0.03629409535 0.02017037135 -0.004999999888
vertex 0.03671010083 0.02030153737 -0.004999999888
vertex 0.03629409535 0.02017037135 0.01499999966
endloop
endfacet
facet normal 0.3007057995 -0.9537169507 0
outer loop
vertex 0.03671010083 0.02030153737 -0.004999999888
vertex 0.03671010083 0.02030153737 0.01499999966
vertex 0.03629409535 0.02017037135 0.01499999966
endloop
endfacet
facet normal 0 0 1
outer loop
vertex 0.03500000015 0.02500000037 0.01499999966
vertex 0.03629409535 0.02017037135 0.01499999966
vertex 0.03671010083 0.02030153737 0.01499999966
endloop
endfacet
facet normal 0 0 -1
outer loop
vertex 0.03500000015 0.02500000037 -0.004999999888
vertex 0.03671010083 0.02030153737 -0.004999999888
vertex 0.03629409535 0.02017037135 -0.004999999888
endloop
endfacet
facet normal 0.3826834324 -0.9238795325 0
outer loop
vertex 0.03671010083 0.02030153737 -0.004999999888
vertex 0.03711309141 0.02046846154 -0.004999999888
vertex 0.03671010083 0.02030153737 0.01499999966
endloop
endfacet
facet normal 0.3826834324 -0.9238795325 0
outer loop
vertex 0.03711309141 0.02046846154 -0.004999999888
vertex 0.03711309141 0.02046846154 0.01499999966
vertex 0.03671010083 0.02030153737 0.01499999966
endloop
endfacet
facet normal 0 0 1
outer loop
vertex 0.03500000015 0.02500000037 0.01499999966
vertex 0.03671010083 0.02030153737 0.01499999966
vertex 0.03711309141 0.02046846154 0.01499999966
endloop
endfacet
facet normal 0 0 -1
outer loop
vertex 0.03500000015 0.02500000037 -0.004999999888
vertex 0.03711309141 0.02046846154 -0.004999999888
vertex 0.03671010083 0.02030153737 -0.004999999888
endloop
endfacet
facet normal 0.4617486132 -0.8870108332 0
outer loop
vertex 0.03711309141 0.02046846154 -0.004999999888
vertex 0.03750000009 0.02066987345 -0.004999999888
vertex 0.03711309141 0.02046846154 0.01499999966
endloop
endfacet
facet normal 0.4617486132 -0.8870108332 0
outer loop
vertex 0.03750000009 0.02066987345 -0.004999999888
vertex 0.03750000009 0.02066987345 0.01499999966
vertex 0.03711309141 0.02046846154 0.01499999966
endloop
endfacet
facet normal 0 0 1
outer loop
vertex 0.03500000015 0.02500000037 0.01499999966
vertex 0.03711309141 0.02046846154 0.01499999966
vertex 0.03750000009 0.02066987345 0.01499999966
endloop
endfacet
facet normal 0 0 -1
outer loop
vertex 0.03500000015 0.02500000037 -0.004999999888
vertex 0.03750000009 0.02066987345 -0.004999999888
vertex 0.03711309141 0.02046846154 -0.004999999888
endloop
endfacet
facet normal 0.5372996083 -0.8433914458 0
outer loop
vertex 0.03750000009 0.02066987345 -0.004999999888
vertex 0.03786788227 0.02090424024 -0.004999999888
vertex 0.03750000009 0.02066987345 0.01499999966
endloop
endfacet
facet normal 0.5372996083 -0.8433914458 0
outer loop
vertex 0.03786788227 0.02090424024 -0.004999999888
vertex 0.03786788227 0.02090424024 0.01499999966
vertex 0.03750000009 0.02066987345 0.01499999966
endloop
endfacet
facet normal 0 0 1
outer loop
vertex 0.03500000015 0.02500000037 0.01499999966
vertex 0.03750000009 0.02066987345 0.01499999966
vertex 0.03786788227 0.02090424024 0.01499999966
endloop
endfacet
facet normal 0 0 -1
outer loop
vertex 0.03500000015 0.02500000037 -0.004999999888
vertex 0.03786788227 0.02090424024 -0.004999999888
vertex 0.03750000009 0.02066987345 -0.004999999888
endloop
endfacet
facet normal 0.608761429 -0.7933533403 0
outer loop
vertex 0.03786788227 0.02090424024 -0.004999999888
vertex 0.03821393813 0.02116977824 -0.004999999888
vertex 0.03786788227 0.02090424024 0.01499999966
endloop
endfacet
facet normal 0.608761429 -0.7933533403 0
outer loop
vertex 0.03821393813 0.02116977824 -0.004999999888
vertex 0.03821393813 0.02116977824 0.01499999966
vertex 0.03786788227 0.02090424024 0.01499999966
endloop
endfacet
facet normal 0 0 1
outer loop
vertex 0.03500000015 0.02500000037 0.01499999966
vertex 0.03786788227 0.02090424024 0.01499999966
vertex 0.03821393813 0.02116977824 0.01499999966
endloop
endfacet
facet normal 0 0 -1
outer loop
vertex 0.03500000015 0.02500000037 -0.004999999888
vertex 0.03821393813 0.02116977824 -0.004999999888
vertex 0.03786788227 0.02090424024 -0.004999999888
endloop
endfacet
facet normal 0.6755902076 -0.7372773368 0
outer loop
vertex 0.03821393813 0.02116977824 -0.004999999888
vertex 0.03853553398 0.02146446655 -0.004999999888
vertex 0.03821393813 0.02116977824 0.01499999966
endloop
endfacet
facet normal 0.6755902076 -0.7372773368 0
outer loop
vertex 0.03853553398 0.02146446655 -0.004999999888
vertex 0.03853553398 0.02146446655 0.01499999966
vertex 0.03821393813 0.02116977824 0.01499999966
endloop
endfacet
facet normal 0 0 1
outer loop
vertex 0.03500000015 0.02500000037 0.01499999966
vertex 0.03821393813 0.02116977824 0.01499999966
vertex 0.03853553398 0.02146446655 0.01499999966
endloop
endfacet
facet normal 0 0 -1
outer loop
vertex 0.03500000015 0.02500000037 -0.004999999888
vertex 0.03853553398 0.02146446655 -0.004999999888
vertex 0.03821393813 0.02116977824 -0.004999999888
endloop
endfacet
facet normal 0.7372773368 -0.6755902076 0
outer loop
vertex 0.03853553398 0.02146446655 -0.004999999888
vertex 0.03883022228 0.0217860624 -0.004999999888
vertex 0.03853553398 0.02146446655 0.01499999966
endloop
endfacet
facet normal 0.7372773368 -0.6755902076 0
outer loop
vertex 0.03883022228 0.0217860624 -0.004999999888
vertex 0.03883022228 0.0217860624 0.01499999966
vertex 0.03853553398 0.02146446655 0.01499999966
endloop
endfacet
facet normal 0 0 1
outer loop
vertex 0.03500000015 0.02500000037 0.01499999966
vertex 0.03853553398 0.02146446655 0.01499999966
vertex 0.03883022228 0.0217860624 0.01499999966
endloop
endfacet
facet normal 0 0 -1
outer loop
vertex 0.03500000015 0.02500000037 -0.004999999888
vertex 0.03883022228 0.0217860624 -0.004999999888
vertex 0.03853553398 0.02146446655 -0.004999999888
endloop
endfacet
facet normal 0.7933533403 -0.608761429 0
outer loop
vertex 0.03883022228 0.0217860624 -0.004999999888
vertex 0.03909576028 0.02213211825 -0.004999999888
vertex 0.03883022228 0.0217860624 0.01499999966
endloop
endfacet
facet normal 0.7933533403 -0.608761429 0
outer loop
vertex 0.03909576028 0.02213211825 -0.004999999888
vertex 0.03909576028 0.02213211825 0.01499999966
vertex 0.03883022228 0.0217860624 0.01499999966
endloop
endfacet
facet normal 0 0 1
outer loop
vertex 0.03500000015 0.02500000037 0.01499999966
vertex 0.03883022228 0.0217860624 0.01499999966
vertex 0.03909576028 0.02213211825 0.01499999966
endloop
endfacet
facet normal 0 0 -1
outer loop
vertex 0.03500000015 0.02500000037 -0.004999999888
vertex 0.03909576028 0.02213211825 -0.004999999888
vertex 0.03883022228 0.0217860624 -0.004999999888
endloop
endfacet
facet normal 0.8433914458 -0.5372996083 0
outer loop
vertex 0.03909576028 0.02213211825 -0.004999999888
vertex 0.03933012707 0.02250000043 -0.004999999888
vertex 0.03909576028 0.02213211825 0.01499999966
endloop
endfacet
facet normal 0.8433914458 -0.5372996083 0
outer loop
vertex 0.03933012707 0.02250000043 -0.004999999888
vertex 0.03933012707 0.02250000043 0.01499999966
vertex 0.03909576028 0.02213211825 0.01499999966
endloop
endfacet
facet normal 0 0 1
outer loop
vertex 0.03500000015 0.02500000037 0.01499999966
vertex 0.03909576028 0.02213211825 0.01499999966
vertex 0.03933012707 0.02250000043 0.01499999966
endloop
endfacet
facet normal 0 0 -1
outer loop
vertex 0.03500000015 0.02500000037 -0.004999999888
vertex 0.03933012707 0.02250000043 -0.004999999888
vertex 0.03909576028 0.02213211825 -0.004999999888
endloop
endfacet
facet normal 0.8870108332 -0.4617486132 0
outer loop
vertex 0.03933012707 0.02250000043 -0.004999999888
vertex 0.03953153898 0.02288690911 -0.004999999888
vertex 0.03933012707 0.02250000043 0.01499999966
endloop
endfacet
facet normal 0.8870108332 -0.4617486132 0
outer loop
vertex 0.03953153898 0.02288690911 -0.004999999888
vertex 0.03953153898 0.02288690911 0.01499999966
vertex 0.03933012707 0.02250000043 0.01499999966
endloop
endfacet
facet normal 0 0 1
outer loop
vertex 0.03500000015 0.02500000037 0.01499999966
vertex 0.03933012707 0.02250000043 0.01499999966
vertex 0.03953153898 0.02288690911 0.01499999966
endloop
endfacet
facet normal 0 0 -1
outer loop
vertex 0.03500000015 0.02500000037 -0.004999999888
vertex 0.03953153898 0.02288690911 -0.004999999888
vertex 0.03933012707 0.02250000043 -0.004999999888
endloop
endfacet
facet normal 0.9238795325 -0.3826834324 0
outer loop
vertex 0.03953153898 0.02288690911 -0.004999999888
vertex 0.03969846315 0.02328989969 -0.004999999888
vertex 0.03953153898 0.02288690911 0.01499999966
endloop
endfacet
facet normal 0.9238795325 -0.3826834324 0
outer loop
vertex 0.03969846315 0.02328989969 -0.004999999888
vertex 0.03969846315 0.02328989969 0.01499999966
vertex 0.03953153898 0.02288690911 0.01499999966
endloop
endfacet
facet normal 0 0 1
outer loop
vertex 0.03500000015 0.02500000037 0.01499999966
vertex 0.03953153898 0.02288690911 0.01499999966
vertex 0.03969846315 0.02328989969 0.01499999966
endloop
endfacet
facet normal 0 0 -1
outer loop
vertex 0.03500000015 0.02500000037 -0.004999999888
vertex 0.03969846315 0.02328989969 -0.004999999888
vertex 0.03953153898 0.02288690911 -0.004999999888
endloop
endfacet
facet normal 0.9537169507 -0.3007057995 0
outer loop
vertex 0.03969846315 0.02328989969 -0.004999999888
vertex 0.03982962917 0.02370590518 -0.004999999888
vertex 0.03969846315 0.02328989969 0.01499999966
endloop
endfacet
facet normal 0.9537169507 -0.3007057995 0
outer loop
vertex 0.03982962917 0.02370590518 -0.004999999888
vertex 0.03982962917 0.02370590518 0.01499999966
vertex 0.03969846315 0.02328989969 0.01499999966
endloop
endfacet
facet normal 0 0 1
outer loop
vertex 0.03500000015 0.02500000037 0.01499999966
vertex 0.03969846315 0.02328989969 0.01499999966
vertex 0.03982962917 0.02370590518 0.01499999966
endloop
endfacet
facet normal 0 0 -1
outer loop
vertex 0.03500000015 0.02500000037 -0.004999999888
vertex 0.03982962917 0.02370590518 -0.004999999888
vertex 0.03969846315 0.02328989969 -0.004999999888
endloop
endfacet
facet normal 0.9762960071 -0.2164396139 0
outer loop
vertex 0.03982962917 0.02370590518 -0.004999999888
vertex 0.0399240388 0.0241317595 -0.004999999888
vertex 0.03982962917 0.02370590518 0.01499999966
endloop
endfacet
facet normal 0.9762960071 -0.2164396139 0
outer loop
vertex 0.0399240388 0.0241317595 -0.004999999888
vertex 0.0399240388 0.0241317595 0.01499999966
vertex 0.03982962917 0.02370590518 0.01499999966
endloop
endfacet
facet normal 0 0 1
outer loop
vertex 0.03500000015 0.02500000037 0.01499999966
vertex 0.03982962917 0.02370590518 0.01499999966
vertex 0.0399240388 0.0241317595 0.01499999966
endloop
endfacet
facet normal 0 0 -1
outer loop
vertex 0.03500000015 0.02500000037 -0.004999999888
vertex 0.0399240388 0.0241317595 -0.004999999888
vertex 0.03982962917 0.02370590518 -0.004999999888
endloop
endfacet
facet normal 0.9914448614 -0.1305261922 0
outer loop
vertex 0.0399240388 0.0241317595 -0.004999999888
vertex 0.03998097353 0.02456422167 -0.004999999888
vertex 0.0399240388 0.0241317595 0.01499999966
endloop
endfacet
facet normal 0.9914448614 -0.1305261922 0
outer loop
vertex 0.03998097353 0.02456422167 -0.004999999888
vertex 0.03998097353 0.02456422167 0.01499999966
vertex 0.0399240388 0.0241317595 0.01499999966
endloop
endfacet
facet normal 0 0 1
outer loop
vertex 0.03500000015 0.02500000037 0.01499999966
vertex 0.0399240388 0.0241317595 0.01499999966
vertex 0.03998097353 0.02456422167 0.01499999966
endloop
endfacet
facet normal 0 0 -1
outer loop
vertex 0.03500000015 0.02500000037 -0.004999999888
vertex 0.03998097353 0.02456422167 -0.004999999888
vertex 0.0399240388 0.0241317595 -0.004999999888
endloop
endfacet
facet normal 0.9990482216 -0.04361938737 0
outer loop
vertex 0.03998097353 0.02456422167 -0.004999999888
vertex 0.04000000004 0.02500000037 -0.004999999888
vertex 0.03998097353 0.02456422167 0.01499999966
endloop
endfacet
facet normal 0.9990482216 -0.04361938737 0
outer loop
vertex 0.04000000004 0.02500000037 -0.004999999888
vertex 0.04000000004 0.02500000037 0.01499999966
vertex 0.03998097353 0.02456422167 0.01499999966
endloop
endfacet
facet normal 0 0 1
outer loop
vertex 0.03500000015 0.02500000037 0.01499999966
vertex 0.03998097353 0.02456422167 0.01499999966
vertex 0.04000000004 0.02500000037 0.01499999966
endloop
endfacet
facet normal 0 0 -1
outer loop
vertex 0.03500000015 0.02500000037 -0.004999999888
vertex 0.04000000004 0.02500000037 -0.004999999888
vertex 0.03998097353 0.02456422167 -0.004999999888
endloop
endfacet
endsolid
