solid StoneyDesigner_solid
facet normal 0 0 -1
outer loop
vertex 0.04000000004 0.03000000026 -0.009999999776
vertex 0.04000000004 0.02000000048 -0.009999999776
vertex 0.03000000026 0.03000000026 -0.009999999776
endloop
endfacet
facet normal 0 0 -1
outer loop
vertex 0.03000000026 0.03000000026 -0.009999999776
vertex 0.04000000004 0.02000000048 -0.009999999776
vertex 0.03000000026 0.02000000048 -0.009999999776
endloop
endfacet
facet normal 0 0 1
outer loop
vertex 0.03000000026 0.03000000026 0.009999999776
vertex 0.03000000026 0.02000000048 0.009999999776
vertex 0.04000000004 0.03000000026 0.009999999776
endloop
endfacet
facet normal 0 -0 1
outer loop
vertex 0.04000000004 0.03000000026 0.009999999776
vertex 0.03000000026 0.02000000048 0.009999999776
vertex 0.04000000004 0.02000000048 0.009999999776
endloop
endfacet
facet normal -1 0 0
outer loop
vertex 0.03000000026 0.03000000026 0.009999999776
vertex 0.03000000026 0.03000000026 -0.009999999776
vertex 0.03000000026 0.02000000048 0.009999999776
endloop
endfacet
facet normal -1 0 0
outer loop
vertex 0.03000000026 0.02000000048 0.009999999776
vertex 0.03000000026 0.03000000026 -0.009999999776
vertex 0.03000000026 0.02000000048 -0.009999999776
endloop
endfacet
facet normal 1 0 0
outer loop
vertex 0.04000000004 0.02000000048 0.009999999776
vertex 0.04000000004 0.02000000048 -0.009999999776
vertex 0.04000000004 0.03000000026 0.009999999776
endloop
endfacet
facet normal 1 0 -0
outer loop
vertex 0.04000000004 0.03000000026 0.009999999776
vertex 0.04000000004 0.02000000048 -0.009999999776
vertex 0.04000000004 0.03000000026 -0.009999999776
endloop
endfacet
facet normal -0 -1 -0
outer loop
vertex 0.03000000026 0.02000000048 0.009999999776
vertex 0.03000000026 0.02000000048 -0.009999999776
vertex 0.04000000004 0.02000000048 0.009999999776
endloop
endfacet
facet normal -0 -1 0
outer loop
vertex 0.04000000004 0.02000000048 0.009999999776
vertex 0.03000000026 0.02000000048 -0.009999999776
vertex 0.04000000004 0.02000000048 -0.009999999776
endloop
endfacet
facet normal -0 1 0
outer loop
vertex 0.04000000004 0.03000000026 0.009999999776
vertex 0.04000000004 0.03000000026 -0.009999999776
vertex 0.03000000026 0.03000000026 0.009999999776
endloop
endfacet
facet normal -0 1 0
outer loop
vertex 0.03000000026 0.03000000026 0.009999999776
vertex 0.04000000004 0.03000000026 -0.009999999776
vertex 0.03000000026 0.03000000026 -0.009999999776
endloop
endfacet
endsolid
